<?xml version="1.0" standalone="no"?>
<!DOCTYPE svg PUBLIC "-//W3C//DTD SVG 20010904//EN"
 "http://www.w3.org/TR/2001/REC-SVG-20010904/DTD/svg10.dtd">
<svg version="1.0" xmlns="http://www.w3.org/2000/svg"
 width="2560.000000pt" height="2560.000000pt" viewBox="0 0 2560.000000 2560.000000"
 preserveAspectRatio="xMidYMid meet">
<metadata>
Created by potrace 1.11, written by Peter Selinger 2001-2013
</metadata>
<g transform="translate(0.000000,2560.000000) scale(0.100000,-0.100000)"
fill="#000000" stroke="none">
<path d="M12537 24994 c-1 -1 -94 -5 -207 -8 -113 -4 -225 -9 -250 -11 -25 -2
-88 -6 -140 -9 -52 -4 -115 -8 -140 -10 -63 -6 -159 -15 -232 -21 -35 -3 -76
-8 -93 -10 -64 -8 -122 -15 -170 -20 -27 -3 -63 -8 -80 -10 -43 -7 -99 -14
-153 -21 -26 -3 -56 -7 -67 -9 -73 -11 -103 -16 -123 -21 -12 -2 -42 -7 -66
-10 -24 -2 -55 -7 -67 -10 -13 -3 -40 -8 -59 -10 -143 -21 -630 -126 -922
-199 -524 -132 -1240 -374 -1703 -575 -573 -249 -1068 -501 -1509 -768 -78
-47 -159 -96 -181 -109 -315 -189 -798 -531 -1174 -830 -108 -86 -198 -159
-201 -162 -3 -4 -34 -31 -70 -61 -36 -30 -85 -72 -111 -95 -25 -22 -81 -71
-125 -110 -164 -145 -320 -292 -533 -506 -171 -171 -295 -302 -475 -503 -132
-147 -457 -539 -536 -646 -14 -18 -35 -45 -46 -59 -122 -148 -528 -736 -673
-976 -23 -38 -74 -121 -112 -184 -38 -63 -69 -115 -69 -117 0 -1 -31 -55 -69
-120 -463 -802 -901 -1864 -1146 -2774 -42 -158 -113 -439 -135 -540 -12 -52
-23 -102 -25 -110 -5 -25 -75 -383 -80 -415 -3 -16 -10 -52 -15 -80 -5 -27
-12 -63 -14 -80 -2 -16 -7 -50 -11 -75 -4 -25 -9 -58 -11 -75 -2 -16 -6 -41
-9 -55 -2 -14 -7 -45 -10 -70 -3 -25 -8 -56 -10 -70 -2 -14 -7 -50 -10 -80 -3
-30 -8 -62 -10 -70 -2 -8 -6 -46 -10 -85 -3 -38 -8 -81 -10 -95 -5 -33 -13
-119 -21 -205 -3 -38 -7 -86 -9 -105 -41 -418 -51 -1225 -20 -1735 9 -140 22
-317 30 -390 2 -22 7 -74 10 -115 4 -41 8 -86 11 -100 2 -13 8 -70 14 -125 6
-55 15 -127 20 -160 5 -33 12 -80 15 -105 12 -87 56 -365 60 -380 3 -8 7 -31
9 -50 3 -19 10 -60 16 -90 6 -30 13 -66 16 -80 2 -14 7 -36 9 -50 3 -14 8 -36
10 -50 3 -14 12 -56 20 -95 8 -38 24 -110 35 -160 10 -49 39 -171 64 -270 39
-155 63 -246 126 -470 104 -366 369 -1104 498 -1385 12 -25 41 -90 65 -145 24
-55 61 -138 83 -185 58 -128 304 -615 352 -697 23 -39 42 -74 42 -77 0 -4 11
-23 24 -44 12 -20 67 -113 122 -207 54 -93 108 -184 119 -201 11 -18 45 -72
75 -120 93 -151 330 -501 459 -679 701 -964 1549 -1831 2503 -2558 189 -144
544 -396 688 -487 8 -5 56 -36 105 -68 429 -278 1035 -610 1490 -817 490 -223
978 -410 1460 -561 66 -21 125 -39 130 -40 6 -1 89 -24 185 -52 96 -27 189
-53 205 -57 17 -5 35 -9 40 -11 50 -13 399 -97 430 -104 22 -4 119 -24 215
-43 189 -39 189 -39 330 -63 52 -9 104 -18 115 -20 10 -2 37 -6 60 -9 22 -3
65 -10 95 -15 30 -5 75 -12 100 -15 25 -4 59 -8 75 -10 70 -10 275 -35 330
-40 33 -3 74 -8 90 -10 17 -2 68 -7 115 -10 47 -3 99 -8 115 -10 27 -4 67 -7
265 -20 344 -24 1142 -24 1445 0 28 2 91 6 140 10 175 11 278 20 365 30 45 5
145 16 190 20 19 2 55 6 80 9 56 8 102 14 160 21 25 3 86 12 135 20 50 8 108
16 130 20 23 3 50 7 62 9 12 3 43 8 70 11 26 4 64 11 83 15 19 5 53 11 75 15
23 3 50 7 60 9 246 49 418 87 585 127 113 28 212 52 220 54 8 2 83 22 165 45
535 147 1196 382 1650 585 441 197 909 435 1222 621 18 10 69 41 115 68 242
143 609 383 863 564 172 124 639 483 665 512 3 3 30 25 60 50 58 48 62 51 210
180 369 322 814 764 1108 1100 17 19 43 49 57 65 15 17 83 98 152 180 69 83
135 161 147 175 12 14 75 95 141 180 66 85 122 157 125 160 12 9 306 425 377
531 154 231 473 746 473 764 0 3 10 22 23 43 13 20 40 68 61 105 20 37 46 84
58 105 11 20 71 136 133 257 350 687 628 1390 841 2124 37 127 147 542 159
601 2 8 23 110 48 225 51 234 64 301 83 414 3 18 7 42 9 51 2 10 7 40 11 67 5
26 9 50 9 53 1 3 5 30 9 60 5 30 10 64 12 75 2 11 6 40 9 65 3 25 8 55 10 67
3 12 7 41 10 65 3 24 7 59 10 78 11 83 27 219 31 265 2 28 6 64 9 81 2 17 7
71 10 120 4 49 8 100 10 113 3 14 7 72 11 130 3 58 8 122 9 141 23 238 23
1078 0 1440 -8 123 -16 235 -20 280 -3 25 -7 77 -10 115 -3 39 -8 88 -10 110
-2 22 -7 65 -10 95 -3 30 -8 66 -10 80 -2 14 -6 52 -10 85 -8 81 -16 146 -21
169 -2 10 -6 44 -10 75 -3 31 -8 58 -9 61 -2 3 -6 33 -10 65 -3 33 -8 67 -11
76 -3 9 -7 34 -9 55 -3 22 -14 84 -24 139 -11 55 -22 114 -25 130 -2 17 -9 55
-16 85 -6 30 -13 66 -15 80 -3 14 -12 57 -20 95 -8 39 -24 111 -34 160 -19 86
-119 481 -160 630 -78 283 -255 816 -341 1030 -4 11 -34 85 -65 165 -32 80
-63 160 -71 178 -60 139 -59 136 -165 372 -92 205 -300 622 -384 771 -25 43
-45 80 -45 83 0 3 -13 26 -29 53 -16 26 -84 142 -152 256 -68 115 -133 223
-144 240 -11 18 -31 50 -45 72 -115 188 -416 618 -589 845 -92 121 -289 370
-301 380 -3 3 -25 30 -50 60 -330 402 -828 916 -1255 1295 -49 44 -92 82 -95
85 -3 3 -48 41 -100 85 -52 44 -97 82 -100 85 -13 15 -330 267 -440 351 -326
248 -792 565 -1093 743 -393 231 -538 310 -905 492 -275 136 -594 279 -852
380 -91 36 -174 69 -185 74 -121 53 -649 231 -905 304 -69 20 -147 43 -175 51
-178 51 -697 176 -830 199 -16 3 -55 10 -85 16 -30 7 -68 14 -85 16 -16 3 -73
14 -126 24 -52 10 -117 21 -143 25 -27 3 -51 7 -55 9 -4 3 -36 8 -71 11 -36 4
-67 8 -70 10 -3 1 -30 6 -61 9 -31 4 -65 8 -75 10 -21 4 -77 11 -169 22 -33 3
-68 8 -78 10 -10 2 -53 6 -95 10 -42 3 -84 8 -93 9 -9 2 -52 6 -95 10 -43 3
-99 8 -124 10 -41 4 -89 7 -275 20 -199 13 -977 29 -988 19z m618 -979 c121
-4 240 -8 265 -10 25 -2 98 -6 163 -10 65 -3 126 -8 135 -9 9 -2 60 -7 112
-11 52 -4 102 -9 111 -10 9 -2 52 -6 95 -10 43 -4 88 -9 99 -11 11 -2 40 -6
65 -9 25 -3 59 -7 75 -9 17 -3 53 -7 80 -11 69 -9 87 -12 191 -29 49 -9 103
-18 120 -20 27 -3 179 -30 234 -41 14 -3 48 -9 75 -14 28 -5 91 -19 140 -30
50 -11 101 -22 115 -24 14 -3 57 -13 95 -22 39 -9 84 -19 100 -22 17 -3 38 -9
48 -14 9 -5 17 -8 17 -5 0 3 23 -2 52 -10 28 -9 59 -17 67 -19 15 -3 44 -11
259 -69 115 -31 345 -103 522 -163 159 -54 555 -201 620 -231 14 -6 86 -36
160 -67 403 -169 905 -421 1273 -639 43 -25 80 -46 82 -46 2 0 24 -13 48 -30
25 -16 48 -30 51 -30 4 0 19 -9 34 -19 15 -11 88 -58 162 -105 74 -47 140 -89
145 -93 6 -5 48 -33 94 -63 46 -30 89 -59 95 -65 6 -5 38 -28 71 -50 52 -34
143 -99 249 -178 34 -25 263 -201 286 -220 9 -6 60 -48 115 -92 55 -44 102
-82 105 -86 3 -3 59 -52 125 -108 418 -359 855 -794 1185 -1181 40 -47 84 -98
99 -115 63 -73 207 -252 319 -400 67 -88 126 -164 130 -170 121 -156 432 -621
575 -860 41 -68 60 -100 76 -128 10 -18 45 -79 78 -137 200 -347 448 -857 617
-1265 151 -367 297 -787 406 -1171 58 -201 148 -555 166 -654 3 -14 14 -65 25
-115 11 -49 25 -112 30 -140 5 -27 11 -61 14 -75 11 -55 38 -207 41 -234 2
-17 11 -68 19 -115 8 -48 21 -138 30 -201 8 -63 18 -131 20 -150 3 -19 7 -57
10 -85 3 -27 7 -63 9 -80 4 -30 14 -124 21 -200 2 -22 7 -83 10 -135 4 -52 8
-111 10 -130 21 -194 28 -1082 12 -1360 -15 -252 -27 -413 -32 -441 -2 -10 -6
-54 -10 -99 -4 -45 -8 -90 -10 -99 -2 -9 -6 -47 -9 -83 -4 -37 -9 -76 -11 -87
-2 -11 -6 -44 -9 -73 -4 -29 -8 -62 -10 -73 -2 -11 -7 -42 -10 -70 -4 -27 -11
-75 -16 -105 -5 -30 -12 -73 -15 -95 -6 -38 -21 -127 -29 -170 -2 -11 -14 -72
-26 -135 -12 -63 -24 -126 -27 -140 -33 -178 -137 -597 -218 -875 -57 -196
-162 -526 -185 -580 -4 -11 -22 -60 -40 -110 -38 -108 -193 -499 -226 -573
-13 -29 -24 -54 -24 -56 0 -2 -20 -47 -45 -100 -25 -53 -45 -99 -45 -101 0 -2
-28 -61 -62 -132 -34 -70 -62 -130 -63 -133 -6 -31 -303 -581 -421 -778 -27
-46 -57 -97 -68 -115 -29 -50 -240 -381 -246 -387 -3 -3 -45 -63 -93 -135
-117 -172 -287 -409 -338 -470 -10 -11 -71 -87 -136 -170 -65 -82 -128 -161
-140 -175 -76 -91 -291 -339 -308 -356 -11 -11 -63 -68 -115 -125 -162 -177
-581 -590 -730 -719 -14 -12 -41 -36 -60 -53 -28 -26 -232 -200 -336 -286
-283 -238 -822 -623 -1170 -838 -471 -290 -986 -563 -1419 -750 -44 -19 -99
-43 -122 -54 -24 -10 -100 -42 -170 -69 -71 -28 -137 -55 -148 -60 -58 -28
-352 -132 -580 -206 -272 -88 -308 -99 -400 -124 -44 -12 -99 -28 -122 -36
-23 -7 -53 -15 -67 -18 -14 -2 -58 -13 -98 -24 -304 -83 -958 -212 -1248 -247
-53 -6 -128 -16 -153 -21 -10 -2 -46 -6 -80 -9 -34 -3 -80 -8 -102 -11 -39 -5
-63 -8 -195 -19 -253 -23 -407 -33 -625 -40 -158 -5 -654 -5 -785 0 -118 5
-333 16 -380 20 -19 1 -78 6 -130 9 -52 4 -111 9 -130 11 -19 2 -66 6 -105 10
-38 3 -79 8 -90 10 -11 2 -51 7 -88 10 -37 4 -76 8 -85 10 -9 1 -46 6 -82 10
-36 4 -67 8 -70 10 -3 2 -34 6 -70 10 -36 4 -67 8 -70 10 -3 2 -25 6 -50 9
-25 3 -56 8 -70 11 -13 2 -42 7 -65 11 -22 3 -110 19 -195 34 -859 160 -1728
433 -2545 801 -238 107 -760 372 -857 435 -21 13 -40 24 -42 24 -16 0 -477
281 -671 410 -282 186 -756 538 -965 716 -95 82 -321 277 -347 300 -17 16 -73
67 -125 114 -238 217 -647 640 -868 900 -40 47 -85 99 -99 115 -142 159 -476
599 -669 880 -105 153 -326 497 -377 585 -5 10 -51 90 -101 177 -247 427 -476
894 -661 1348 -118 290 -302 810 -353 1000 -4 17 -27 95 -50 175 -44 155 -158
610 -175 700 -3 14 -9 48 -15 75 -6 28 -12 61 -15 75 -3 14 -13 70 -24 125
-11 55 -27 143 -35 195 -9 52 -18 104 -20 115 -2 11 -7 45 -11 75 -4 30 -9 62
-10 70 -3 19 -17 118 -29 215 -3 17 -7 62 -11 100 -3 39 -8 77 -10 85 -4 17
-16 123 -20 190 -2 25 -6 77 -9 115 -14 162 -24 318 -31 490 -5 115 -5 703 0
815 6 145 16 343 20 395 2 28 7 86 10 130 3 44 8 98 10 120 2 22 7 67 10 100
4 33 8 74 10 90 2 17 7 57 11 90 10 104 17 159 29 235 2 14 6 45 10 70 4 25 8
56 10 70 6 40 64 382 70 410 9 48 57 285 60 300 16 70 92 383 110 450 2 8 15
58 29 111 14 53 50 177 80 275 287 944 674 1802 1194 2649 173 282 524 788
669 965 7 8 49 62 94 120 99 126 279 341 395 470 22 25 56 63 75 84 111 126
474 496 644 657 82 77 255 232 339 304 32 28 63 55 70 60 6 6 52 44 101 85 50
41 92 77 95 80 3 3 75 60 160 127 815 635 1696 1151 2610 1528 63 26 129 53
145 60 17 7 120 47 230 88 386 145 773 266 1155 362 148 38 167 42 209 51 14
3 28 7 31 9 4 2 22 7 41 10 19 3 72 15 119 25 47 10 96 21 110 23 14 3 77 15
140 27 63 12 124 24 135 26 43 8 132 23 170 29 22 3 65 10 95 15 61 10 133 20
245 35 22 3 56 7 75 10 82 10 118 15 170 20 30 3 71 7 90 10 19 2 69 7 110 10
41 3 91 8 110 10 19 3 80 7 135 10 55 4 125 8 155 10 30 2 154 7 275 10 121 4
221 8 222 9 3 3 280 -2 488 -9z"/>
<path d="M5699 21114 c0 -16 -2 -47 -4 -69 -1 -22 -6 -94 -10 -160 -3 -66 -8
-145 -10 -175 -2 -30 -6 -107 -9 -170 -4 -63 -9 -149 -11 -190 -7 -99 -14
-222 -20 -345 -6 -102 -10 -171 -20 -330 -7 -121 -13 -218 -20 -350 -3 -60 -8
-137 -10 -170 -3 -33 -7 -114 -10 -180 -3 -66 -7 -140 -10 -165 -2 -25 -7
-103 -11 -175 -3 -71 -8 -150 -9 -175 -2 -25 -6 -99 -10 -165 -4 -66 -8 -145
-10 -175 -2 -30 -7 -107 -10 -170 -4 -63 -8 -140 -10 -170 -2 -30 -7 -104 -10
-165 -3 -60 -8 -137 -10 -170 -2 -33 -7 -107 -10 -165 -3 -58 -8 -136 -10
-175 -8 -136 -18 -321 -19 -363 l-1 -42 590 -596 c325 -328 748 -756 942 -952
l352 -356 -25 -101 c-14 -55 -28 -111 -30 -125 -3 -14 -9 -39 -15 -56 -5 -17
-11 -40 -13 -50 -2 -10 -27 -111 -56 -224 -28 -113 -53 -214 -56 -225 -3 -11
-7 -31 -10 -45 -3 -14 -36 -149 -74 -300 -76 -302 -290 -1156 -295 -1180 -3
-12 -100 -401 -120 -480 -9 -35 -67 -276 -70 -290 -3 -14 -208 -838 -222 -890
-3 -14 -7 -29 -9 -35 -16 -64 -357 -1434 -359 -1445 -2 -8 -13 -53 -25 -100
-12 -47 -23 -92 -25 -100 -2 -8 -51 -206 -110 -440 -59 -234 -108 -432 -110
-440 -2 -8 -20 -80 -40 -160 -20 -80 -38 -154 -40 -165 -3 -11 -16 -60 -29
-110 -24 -90 -28 -164 -12 -285 3 -25 8 -79 12 -120 3 -41 7 -86 9 -100 1 -14
6 -61 9 -105 4 -44 9 -91 11 -105 2 -14 6 -65 10 -115 4 -49 8 -92 10 -95 1
-3 6 -51 10 -108 3 -56 8 -112 10 -125 2 -12 6 -53 10 -92 3 -38 8 -88 10
-110 2 -22 7 -71 10 -110 6 -70 6 -70 64 -125 59 -56 154 -145 531 -500 73
-69 150 -141 170 -160 130 -123 336 -317 350 -330 9 -8 80 -74 156 -146 77
-73 159 -151 184 -174 25 -23 108 -101 184 -174 77 -72 147 -138 156 -146 9
-8 48 -45 87 -82 l71 -68 2293 0 2292 0 126 76 c69 42 146 88 171 102 25 14
63 37 85 52 32 22 319 195 387 235 10 5 84 50 165 100 82 49 247 150 368 223
121 74 222 135 223 137 2 2 15 41 28 87 14 46 44 151 69 233 64 219 122 417
128 440 3 11 24 82 47 159 43 145 44 148 20 286 -14 84 -19 111 -25 155 -4 22
-19 119 -35 215 -16 96 -32 195 -35 220 -4 25 -19 122 -35 215 -16 94 -31 190
-35 215 -3 25 -8 52 -10 60 -2 8 -6 33 -9 55 -10 67 -17 99 -26 120 -5 11 -44
110 -86 220 -62 162 -196 506 -376 970 -10 28 -32 84 -47 125 -16 41 -131 338
-256 660 -250 643 -273 704 -279 734 -2 12 -14 73 -25 136 -12 63 -28 147 -36
185 -8 39 -16 81 -18 95 -12 62 -20 107 -24 125 -2 11 -10 54 -18 95 -8 41
-17 89 -20 105 -3 17 -13 68 -21 115 -9 47 -18 94 -20 104 -2 10 44 145 102
300 58 155 107 286 109 291 1 6 6 20 10 32 7 22 18 28 65 37 14 2 79 16 145
31 66 14 134 28 151 31 l32 5 0 -294 c0 -318 4 -343 57 -427 34 -54 113 -115
177 -136 49 -16 125 -17 987 -18 999 -1 1013 0 1096 48 60 36 120 108 146 175
21 54 22 71 23 461 l1 405 627 1 628 2 2 -1027 3 -1026 26 -56 c39 -82 112
-149 195 -179 l67 -23 773 -1 c425 -1 775 -4 779 -8 3 -3 7 -190 8 -415 l2
-408 29 -58 c50 -103 130 -167 241 -192 35 -8 327 -11 995 -9 1040 1 979 -2
1073 63 51 35 89 81 120 148 l22 48 3 1140 c2 837 0 1155 -8 1195 -29 136
-143 246 -277 266 -61 9 -1851 9 -1917 0 -89 -13 -176 -70 -230 -153 -50 -77
-53 -110 -54 -508 0 -203 -1 -382 -1 -397 l-1 -28 -580 0 c-319 0 -581 3 -581
8 -1 4 -2 870 -3 1925 l-1 1917 583 -2 584 -3 1 -355 c0 -341 1 -357 22 -417
26 -71 61 -117 126 -162 94 -66 47 -63 1094 -64 750 0 959 3 990 13 60 19 106
45 146 82 36 34 97 128 84 128 -4 0 -1 7 6 17 12 13 14 209 16 1167 2 768 -1
1167 -8 1198 -14 64 -78 160 -131 195 -104 71 -29 66 -1078 68 -668 1 -960 -2
-995 -10 -128 -29 -217 -111 -255 -233 -16 -50 -18 -107 -18 -482 -1 -234 -1
-432 -1 -440 -1 -13 -93 -15 -778 -15 -712 0 -781 -1 -832 -18 -72 -22 -139
-72 -180 -133 -63 -96 -61 -52 -61 -1110 l0 -962 -628 0 -627 0 -1 407 c-1
396 -2 407 -24 466 -30 81 -113 163 -196 195 l-59 23 -960 0 c-950 0 -961 0
-1018 -21 -70 -25 -138 -78 -174 -136 -51 -80 -54 -107 -55 -448 0 -175 -4
-318 -9 -318 -5 0 -38 13 -73 30 l-65 29 -163 -50 c-90 -27 -176 -54 -193 -59
-16 -6 -111 -35 -210 -65 -150 -46 -183 -60 -200 -82 -11 -15 -100 -154 -197
-309 -164 -262 -177 -287 -183 -341 -3 -32 -8 -69 -10 -83 -8 -42 -13 -83 -20
-139 -4 -30 -8 -61 -10 -70 -1 -9 -6 -45 -10 -81 -4 -36 -8 -67 -10 -70 -1 -3
-6 -36 -10 -73 -3 -37 -8 -76 -10 -86 -2 -10 -6 -42 -10 -72 -3 -30 -9 -67
-11 -84 -3 -16 -7 -46 -9 -65 -2 -19 -8 -64 -13 -100 -10 -66 -3 -116 42 -340
8 -41 24 -127 36 -190 11 -63 25 -133 30 -155 6 -22 17 -80 26 -130 9 -49 18
-99 20 -110 47 -248 68 -340 88 -394 13 -36 73 -203 131 -371 59 -168 132
-375 162 -460 30 -85 81 -230 114 -323 32 -92 86 -245 120 -340 33 -94 65
-183 69 -197 4 -14 29 -83 55 -155 26 -71 48 -134 49 -140 2 -5 6 -17 9 -25 4
-8 25 -69 47 -135 23 -66 45 -129 50 -140 5 -11 25 -67 45 -124 32 -94 36
-117 40 -240 3 -75 7 -208 11 -296 11 -287 12 -328 19 -525 4 -107 8 -220 9
-250 3 -55 -3 -77 -27 -102 -10 -11 -224 -280 -332 -419 -100 -129 -122 -156
-141 -177 -21 -23 -22 -23 -260 -22 -243 2 -778 7 -847 9 l-39 1 22 38 c13 20
36 62 53 92 17 30 49 87 72 125 126 211 143 248 150 315 3 36 8 81 10 100 2
19 7 71 10 115 3 44 8 91 10 105 2 14 6 65 10 114 4 50 8 97 10 105 1 9 6 52
9 96 4 44 9 98 11 120 11 104 16 154 20 205 4 49 12 132 20 225 18 182 20 165
-46 425 -33 134 -62 251 -64 260 -2 8 -45 179 -95 380 -50 201 -93 372 -95
380 -2 8 -24 98 -50 200 -25 102 -48 193 -50 203 -2 10 -7 28 -10 40 -3 12
-10 38 -15 57 -8 30 -74 298 -85 348 -15 65 -68 276 -80 317 -7 28 -17 66 -21
85 -4 19 -8 37 -9 40 -7 25 -114 454 -120 480 -2 8 -27 107 -55 220 -28 113
-60 241 -71 285 -10 44 -39 161 -64 260 -26 99 -48 191 -51 205 -3 14 -93 376
-200 805 -108 429 -197 787 -199 795 -6 30 -356 1435 -360 1450 -5 15 68 90
1272 1305 l612 618 -4 66 c-2 36 -7 118 -10 181 -3 63 -8 140 -10 170 -3 30
-7 102 -10 160 -3 58 -8 141 -11 185 -2 44 -6 116 -9 160 -3 44 -7 123 -10
175 -3 52 -7 124 -10 160 -3 36 -7 112 -10 170 -3 58 -7 139 -10 180 -2 41 -7
120 -10 175 -3 55 -7 132 -10 170 -2 39 -7 115 -10 170 -9 157 -15 264 -20
340 -2 39 -7 115 -10 170 -3 55 -7 136 -10 180 -3 44 -7 121 -10 170 -9 169
-15 260 -20 345 -3 47 -7 123 -10 170 -3 47 -7 121 -10 165 -2 44 -7 125 -10
180 -3 55 -7 132 -10 170 -3 39 -7 115 -10 170 -7 125 -16 249 -18 251 -1 1
-40 -34 -87 -79 -48 -45 -137 -129 -199 -187 -63 -58 -135 -125 -162 -150 -56
-53 -249 -232 -293 -273 -64 -60 -263 -245 -340 -317 -44 -41 -110 -103 -146
-136 -36 -34 -101 -95 -145 -136 l-79 -76 -111 40 c-126 46 -125 46 -345 127
-91 34 -172 64 -180 68 -8 3 -19 7 -25 9 -5 2 -59 21 -120 44 -60 23 -249 93
-419 156 l-310 116 -315 -117 c-174 -65 -449 -167 -611 -227 -361 -134 -550
-204 -570 -210 -13 -4 -111 82 -355 313 -33 31 -76 71 -95 89 -19 18 -57 53
-85 79 -27 26 -115 107 -195 181 -80 74 -157 146 -171 160 -14 14 -70 66 -125
117 -54 50 -117 108 -140 130 -22 21 -91 85 -154 143 -62 58 -121 114 -132
124 -18 19 -18 19 -19 -10z m14926 -6004 l0 -745 -560 0 -559 0 -1 730 c0 402
2 738 4 748 3 16 36 17 560 15 l556 -3 0 -745z m-5595 -2310 l0 -750 -560 0
-560 0 0 750 0 750 560 0 560 0 0 -750z m5591 -1574 c1 -6 2 -343 3 -749 l1
-737 -559 2 -560 3 -1 735 c0 404 1 740 3 746 5 16 1111 16 1113 0z"/>
</g>
</svg>
